FFmpeg version SVN-r25716, Copyright (c) 2000-2010 the FFmpeg developers  built on Nov 10 2010 12:23:18 with gcc 4.1.2 20080704 (Red Hat 4.1.2-48)  configuration: --enable-libmp3lame --enable-shared --disable-mmx --arch=x86_64  libavutil     50.33. 0 / 50.33. 0  libavcore      0.12. 1 /  0.12. 1  libavcodec    52.94. 4 / 52.94. 4  libavformat   52.84. 0 / 52.84. 0  libavdevice   52. 2. 2 / 52. 2. 2  libavfilter    1.59. 0 /  1.59. 0  libswscale     0.12. 0 /  0.12. 0Seems stream 0 codec frame rate differs from container frame rate: 1000.00 (1000/1) -> 12.05 (1000/83)Input #0, mov,mp4,m4a,3gp,3g2,mj2, from '/RAID10/data/converted_video_files/25629.mov':  Metadata:    major_brand     : qt      minor_version   : 537199360    compatible_brands: qt    Duration: 00:00:13.77, start: 0.000000, bitrate: 3062 kb/s    Stream #0.0(eng): Video: mpeg4, yuv420p, 960x586 [PAR 1:1 DAR 480:293], 3061 kb/s, 12.05 fps, 12.05 tbr, 1k tbn, 1k tbc[buffer @ 0xf93e0f0] w:960 h:586 pixfmt:yuv420pOutput #0, flv, to '/RAID10/data/converted_video_files/25629.flv':  Metadata:    encoder         : Lavf52.84.0    Stream #0.0(eng): Video: flv, yuv420p, 960x586 [PAR 1:1 DAR 480:293], q=2-31, 600 kb/s, 1k tbn, 24 tbcStream mapping:  Stream #0.0 -> #0.0Press [q] to stop encodingframe=    7 fps=  0 q=9.6 size=     398kB time=0.54 bitrate=6016.4kbits/s    frame=   17 fps= 15 q=31.0 size=     544kB time=1.37 bitrate=3245.8kbits/s    frame=   27 fps= 16 q=31.0 size=     657kB time=2.21 bitrate=2435.9kbits/s    frame=   38 fps= 17 q=31.0 size=     783kB time=3.12 bitrate=2052.1kbits/s    frame=   52 fps= 19 q=31.0 size=     964kB time=4.25 bitrate=1858.1kbits/s    frame=   67 fps= 21 q=31.0 size=    1119kB time=5.50 bitrate=1667.1kbits/s    frame=   82 fps= 22 q=31.0 size=    1264kB time=6.75 bitrate=1534.6kbits/s    frame=   97 fps= 23 q=24.8 size=    1424kB time=8.00 bitrate=1458.4kbits/s    frame=  118 fps= 25 q=31.0 size=    1616kB time=9.75 bitrate=1357.9kbits/s    frame=  138 fps= 26 q=31.0 size=    1829kB time=11.42 bitrate=1312.5kbits/s    frame=  148 fps= 26 q=31.0 size=    1922kB time=12.25 bitrate=1285.5kbits/s    frame=  162 fps= 26 q=31.0 size=    2037kB time=13.42 bitrate=1243.8kbits/s    frame=  166 fps= 25 q=31.0 Lsize=    2072kB time=13.75 bitrate=1234.2kbits/s    video:2069kB audio:0kB global headers:0kB muxing overhead 0.135284%